<svg version="1.1"
	 id="svg2" xmlns:cc="http://creativecommons.org/ns#" xmlns:dc="http://purl.org/dc/elements/1.1/" xmlns:rdf="http://www.w3.org/1999/02/22-rdf-syntax-ns#"
	 xmlns="http://www.w3.org/2000/svg" xmlns:xlink="http://www.w3.org/1999/xlink" x="0px" y="0px" viewBox="0 0 320 320"
	 style="enable-background:new 0 0 320 320;" xml:space="preserve">
<style type="text/css">
	.st0{fill:#DD0505;}
	.st1{fill:#0A0A0A;}
</style>
<g>
	<circle class="st0" cx="80.2" cy="44.8" r="40"/>
	<path class="st1" d="M288.7,43.7c-11-14-24.1-26.2-38.8-36.3c-0.7-0.5-1.5-0.8-2.4-0.8l-7.4-0.5c-7-0.5-13.1,4.7-13.6,11.7
		l-10.1,137.9c-0.4,5.6-5,9.9-10.6,9.9h-91.6c-5.7,0-10.2-4.8-9.8-10.5l3.3-45.1l0-0.1c0.3-3.8-3.8-6.2-7-4.3
		c-6.1,3.6-13.3,5.7-20.9,5.7c-11,0-20.9-4.3-28.3-11.3c-1.9-1.8-5-1.7-6.7,0.3c-1.2,1.3-1.9,3-2,4.9L30.3,275
		c-0.1,1.4,0.4,2.7,1.4,3.7c10.1,10.2,21.5,19.2,33.9,26.6c0.6,0.4,1.4,0.6,2.1,0.7l12.2,0.9c7.3,0.5,13.7-5,14.3-12.3l4.1-55.8
		c0.3-4.5,4.1-8,8.6-8h95.8c4.5,0,8,3.8,7.7,8.3l-4.6,62.3c-0.5,7,4.7,13.1,11.7,13.6l3.3,0.2c0.8,0.1,1.6-0.1,2.3-0.4
		c17.8-8,34.1-18.9,48.1-32.2c0.9-0.8,1.4-1.9,1.5-3.1l17-232.5C289.8,45.8,289.4,44.7,288.7,43.7z"/>
</g>
</svg>
